<svg width="102" height="85" viewBox="0 0 102 85" fill="none" xmlns="http://www.w3.org/2000/svg">
<path d="M92.8481 13.1017H71.7464V8.88124C71.7464 4.2261 67.9609 0.44043 63.3056 0.44043H37.9833C33.3282 0.44043 29.5425 4.22591 29.5425 8.88124V13.1015H8.44081C3.78548 13.1017 0 16.8872 0 21.5424V34.2035C0 38.8588 3.78548 42.6443 8.44081 42.6443H42.2039V40.534C42.2039 39.3676 43.1477 38.4238 44.3141 38.4238H56.9752C58.1416 38.4238 59.0855 39.3676 59.0855 40.534V42.6443H92.8485C97.5035 42.6443 101.289 38.8588 101.289 34.2035V21.5424C101.289 16.8872 97.5035 13.1017 92.8481 13.1017ZM63.3056 13.1017H37.9833V8.88124H63.3056V13.1017Z" fill="black"/>
<path d="M100.118 44.9215C99.3993 44.565 98.5399 44.6475 97.9051 45.1296C96.4049 46.2651 94.6573 46.8647 92.8479 46.8647H59.0853V53.1953C59.0853 54.3617 58.1414 55.3056 56.975 55.3056H44.3139C43.1475 55.3056 42.2037 54.3617 42.2037 53.1953V46.8647H8.44081C6.63146 46.8647 4.88403 46.2651 3.38368 45.1296C2.74687 44.6433 1.88967 44.5608 1.17036 44.9215C0.453426 45.2782 0 46.0095 0 46.8113V76.4075C0 81.0626 3.78548 84.8483 8.44081 84.8483H92.8483C97.5035 84.8483 101.289 81.0628 101.289 76.4075V46.8113C101.289 46.0095 100.836 45.2782 100.118 44.9215Z" fill="black"/>
</svg>
