<svg width="93" height="79" viewBox="0 0 93 79" fill="none" xmlns="http://www.w3.org/2000/svg">
<path d="M90.7383 74.4073H89.6832V30.0934C89.6832 28.9741 89.2385 27.9006 88.4471 27.1092C87.6556 26.3177 86.5821 25.873 85.4628 25.873H77.022C75.9027 25.873 74.8293 26.3177 74.0378 27.1092C73.2463 27.9006 72.8017 28.9741 72.8017 30.0934V74.4073H66.4711V44.8647C66.4711 43.7454 66.0265 42.6719 65.235 41.8805C64.4435 41.089 63.3701 40.6444 62.2507 40.6444H53.81C52.6907 40.6444 51.6172 41.089 50.8257 41.8805C50.0343 42.6719 49.5896 43.7454 49.5896 44.8647V74.4073H43.2591V38.5342C43.2591 37.4149 42.8144 36.3414 42.0229 35.5499C41.2315 34.7584 40.158 34.3138 39.0387 34.3138H30.5979C29.4786 34.3138 28.4052 34.7584 27.6137 35.5499C26.8222 36.3414 26.3776 37.4149 26.3776 38.5342V74.4073H20.047V51.1953C20.047 50.076 19.6024 49.0025 18.8109 48.211C18.0194 47.4196 16.946 46.9749 15.8266 46.9749H7.3859C6.26658 46.9749 5.19312 47.4196 4.40164 48.211C3.61017 49.0025 3.16552 50.076 3.16552 51.1953V74.4073H2.11043C1.55077 74.4073 1.01404 74.6296 0.618303 75.0254C0.222567 75.4211 0.000244141 75.9579 0.000244141 76.5175C0.000244141 77.0772 0.222567 77.6139 0.618303 78.0096C1.01404 78.4054 1.55077 78.6277 2.11043 78.6277H90.7383C91.2979 78.6277 91.8346 78.4054 92.2304 78.0096C92.6261 77.6139 92.8484 77.0772 92.8484 76.5175C92.8484 75.9579 92.6261 75.4211 92.2304 75.0254C91.8346 74.6296 91.2979 74.4073 90.7383 74.4073Z" fill="black"/>
<path d="M2.11037 38.5342C2.49266 38.5343 2.86772 38.43 3.19501 38.2324L33.8961 19.8105L56.1016 29.9035C56.433 30.0545 56.7978 30.1171 57.1605 30.0853C57.5233 30.0535 57.8716 29.9283 58.1717 29.722L87.6489 9.41362L86.5938 14.6553C86.4838 15.2041 86.5963 15.774 86.9066 16.2398C87.2169 16.7056 87.6994 17.029 88.2482 17.139C88.3872 17.166 88.5286 17.1794 88.6702 17.1791C89.1563 17.1787 89.6274 17.0105 90.0038 16.7029C90.3802 16.3953 90.6389 15.9672 90.7361 15.491L92.8041 5.15104C92.9162 4.60287 92.806 4.03262 92.4977 3.56568C92.1894 3.09873 91.7084 2.77333 91.1602 2.66102L80.8203 0.593041C80.5487 0.537618 80.2689 0.536228 79.9968 0.58895C79.7247 0.641672 79.4656 0.747474 79.2344 0.900314C79.0032 1.05315 78.8043 1.25004 78.6492 1.47973C78.4941 1.70942 78.3857 1.96742 78.3303 2.23899C78.2749 2.51056 78.2735 2.79039 78.3262 3.06249C78.3789 3.3346 78.4847 3.59366 78.6376 3.82488C78.7904 4.0561 78.9873 4.25495 79.217 4.41008C79.4467 4.56521 79.7047 4.67358 79.9762 4.72901L85.4311 5.82208L56.7642 25.5671L34.6368 15.5121C34.3254 15.3704 33.9843 15.3066 33.6428 15.3261C33.3013 15.3456 32.9697 15.4478 32.6764 15.6239L1.02363 34.6156C0.628331 34.8533 0.321803 35.2139 0.150952 35.6424C-0.0198997 36.0708 -0.0456635 36.5435 0.0776037 36.9879C0.200871 37.4324 0.466379 37.8243 0.833496 38.1035C1.20061 38.3828 1.64912 38.534 2.11037 38.5342Z" fill="black"/>
</svg>
