<svg width="102" height="102" viewBox="0 0 102 102" fill="none" xmlns="http://www.w3.org/2000/svg">
<path d="M53.6119 44.7096C53.6119 45.834 52.9773 46.8598 51.9717 47.364L40.1019 53.2989C38.6208 54.0343 36.8498 53.4265 36.1202 51.9717C35.387 50.5054 35.9811 48.7231 37.4474 47.99L47.677 42.8753V29.8723H41.7421V38.7747C41.7421 40.4149 40.4149 41.7421 38.7747 41.7421C37.1345 41.7421 35.8072 40.4149 35.8072 38.7747V29.8723H29.8723V59.5468H38.7747C40.4149 59.5468 41.7421 60.874 41.7421 62.5143C41.7421 64.1545 40.4149 65.4817 38.7747 65.4817H29.8723V71.4166H47.677V56.5794C47.677 55.4549 48.3116 54.4291 49.3172 53.9249L61.187 47.99C62.6563 47.2598 64.4326 47.8509 65.1687 49.3172C65.9019 50.7835 65.3078 52.5658 63.8415 53.2989L53.6119 58.4136V71.4166H59.5468V62.5143C59.5468 60.874 60.874 59.5468 62.5143 59.5468C64.1545 59.5468 65.4817 60.874 65.4817 62.5143V71.4166H71.4166V41.7421H62.5143C60.874 41.7421 59.5468 40.4149 59.5468 38.7747C59.5468 37.1345 60.874 35.8072 62.5143 35.8072H71.4166V29.8723H53.6119V44.7096Z" fill="black"/>
<path d="M98.3215 29.8723C99.9617 29.8723 101.289 28.5451 101.289 26.9049C101.289 25.2647 99.9617 23.9374 98.3215 23.9374H89.2213V15.0351C89.2213 13.3949 87.8941 12.0676 86.2539 12.0676H77.3515V2.96745C77.3515 1.32724 76.0243 0 74.3841 0C72.7439 0 71.4166 1.32724 71.4166 2.96745V12.0676H65.4817V2.96745C65.4817 1.32724 64.1545 0 62.5143 0C60.8741 0 59.5468 1.32724 59.5468 2.96745V12.0676H53.6119V2.96745C53.6119 1.32724 52.2847 0 50.6445 0C49.0043 0 47.677 1.32724 47.677 2.96745V12.0676H41.7421V2.96745C41.7421 1.32724 40.4149 0 38.7747 0C37.1345 0 35.8072 1.32724 35.8072 2.96745V12.0676H29.8723V2.96745C29.8723 1.32724 28.5451 0 26.9049 0C25.2647 0 23.9374 1.32724 23.9374 2.96745V12.0676H15.0351C13.3949 12.0676 12.0676 13.3949 12.0676 15.0351V23.9374H2.96745C1.32724 23.9374 0 25.2647 0 26.9049C0 28.5451 1.32724 29.8723 2.96745 29.8723H12.0676V35.8072H2.96745C1.32724 35.8072 0 37.1345 0 38.7747C0 40.4149 1.32724 41.7421 2.96745 41.7421H12.0676V47.677H2.96745C1.32724 47.677 0 49.0043 0 50.6445C0 52.2847 1.32724 53.6119 2.96745 53.6119H12.0676V59.5468H2.96745C1.32724 59.5468 0 60.8741 0 62.5143C0 64.1545 1.32724 65.4817 2.96745 65.4817H12.0676V71.4166H2.96745C1.32724 71.4166 0 72.7439 0 74.3841C0 76.0243 1.32724 77.3515 2.96745 77.3515H12.0676V86.2539C12.0676 87.8941 13.3949 89.2213 15.0351 89.2213H23.9374V98.3215C23.9374 99.9617 25.2647 101.289 26.9049 101.289C28.5451 101.289 29.8723 99.9617 29.8723 98.3215V89.2213H35.8072V98.3215C35.8072 99.9617 37.1345 101.289 38.7747 101.289C40.4149 101.289 41.7421 99.9617 41.7421 98.3215V89.2213H47.677V98.3215C47.677 99.9617 49.0043 101.289 50.6445 101.289C52.2847 101.289 53.6119 99.9617 53.6119 98.3215V89.2213H59.5468V98.3215C59.5468 99.9617 60.8741 101.289 62.5143 101.289C64.1545 101.289 65.4817 99.9617 65.4817 98.3215V89.2213H71.4166V98.3215C71.4166 99.9617 72.7439 101.289 74.3841 101.289C76.0243 101.289 77.3515 99.9617 77.3515 98.3215V89.2213H86.2539C87.8941 89.2213 89.2213 87.8941 89.2213 86.2539V77.3515H98.3215C99.9617 77.3515 101.289 76.0243 101.289 74.3841C101.289 72.7439 99.9617 71.4166 98.3215 71.4166H89.2213V65.4817H98.3215C99.9617 65.4817 101.289 64.1545 101.289 62.5143C101.289 60.8741 99.9617 59.5468 98.3215 59.5468H89.2213V53.6119H98.3215C99.9617 53.6119 101.289 52.2847 101.289 50.6445C101.289 49.0043 99.9617 47.677 98.3215 47.677H89.2213V41.7421H98.3215C99.9617 41.7421 101.289 40.4149 101.289 38.7747C101.289 37.1345 99.9617 35.8072 98.3215 35.8072H89.2213V29.8723H98.3215ZM77.3515 74.3841C77.3515 76.0243 76.0243 77.3515 74.3841 77.3515H26.9049C25.2647 77.3515 23.9374 76.0243 23.9374 74.3841V26.9049C23.9374 25.2647 25.2647 23.9374 26.9049 23.9374H74.3841C76.0243 23.9374 77.3515 25.2647 77.3515 26.9049V74.3841Z" fill="black"/>
</svg>
