<svg width="95" height="95" viewBox="0 0 95 95" fill="none" xmlns="http://www.w3.org/2000/svg">
<path d="M24.0242 25.5052L15.8418 26.1374C13.565 26.3134 11.5372 27.5067 10.2781 29.4112L0.841562 43.6834C-0.113398 45.1278 -0.26521 46.9353 0.435192 48.5187C1.13578 50.1022 2.5755 51.2056 4.28639 51.4707L11.7783 52.6309C13.5309 43.3304 17.7263 34.0527 24.0242 25.5052Z" fill="black"/>
<path d="M41.8142 82.6668L42.9747 90.1587C43.2397 91.8696 44.3432 93.3093 45.9264 94.0097C46.5851 94.3012 47.2824 94.445 47.9762 94.445C48.9507 94.445 49.9184 94.1612 50.7619 93.6033L65.0345 84.167C66.939 82.9077 68.1323 80.8797 68.3079 78.6033L68.9401 70.4209C60.3925 76.719 51.115 80.9144 41.8142 82.6668Z" fill="black"/>
<path d="M38.9966 77.474C39.2567 77.474 39.5183 77.4526 39.7793 77.4091C43.6759 76.7575 47.4315 75.66 51.0142 74.2234L20.2219 43.4312C18.7853 47.0136 17.6878 50.7692 17.0363 54.666C16.7795 56.202 17.2947 57.7668 18.3957 58.868L35.5773 76.0496C36.4915 76.9636 37.7253 77.474 38.9966 77.474Z" fill="black"/>
<path d="M86.9145 41.8734C94.4496 27.3057 94.7287 11.9113 94.3349 4.69142C94.2 2.2176 92.2278 0.245334 89.7538 0.110493C88.5782 0.0463 87.1849 0 85.6146 0C77.5414 0 64.7673 1.2228 52.5717 7.53084C42.8797 12.544 30.1709 23.5824 22.6729 38.0888C22.7614 38.158 22.8479 38.2314 22.9294 38.3129L56.1326 71.5161C56.2141 71.5976 56.2874 71.684 56.3565 71.7725C70.863 64.2743 81.9014 51.5654 86.9145 41.8734ZM54.914 19.9662C60.3079 14.5723 69.0848 14.5718 74.479 19.9662C77.0921 22.5791 78.5311 26.0534 78.5311 29.7487C78.5311 33.4441 77.0921 36.9184 74.479 39.5313C71.7824 42.228 68.2388 43.5766 64.6966 43.5769C61.1533 43.5771 57.6114 42.2287 54.914 39.5313C52.301 36.9184 50.8618 33.4441 50.8618 29.7487C50.8618 26.0534 52.301 22.5791 54.914 19.9662Z" fill="black"/>
<path d="M58.8271 35.6183C62.0635 38.8547 67.3299 38.8549 70.5664 35.6183C72.1341 34.0504 72.9976 31.966 72.9976 29.7487C72.9976 27.5315 72.1341 25.447 70.5664 23.8793C68.9482 22.261 66.8225 21.4519 64.6967 21.4519C62.5712 21.4519 60.4454 22.261 58.8273 23.8793C57.2595 25.447 56.3959 27.5315 56.3959 29.7487C56.3959 31.966 57.2594 34.0506 58.8271 35.6183Z" fill="black"/>
<path d="M2.82332 77.8316C3.53147 77.8316 4.23963 77.5616 4.77974 77.0211L13.8135 67.9874C14.8941 66.9068 14.8941 65.1549 13.8135 64.0744C12.7331 62.9938 10.981 62.9938 9.90044 64.0744L0.866715 73.1081C-0.213872 74.1887 -0.213872 75.9405 0.866715 77.0211C1.40701 77.5614 2.11516 77.8316 2.82332 77.8316Z" fill="black"/>
<path d="M22.0922 72.3532C21.0118 71.2726 19.2598 71.2726 18.1792 72.3532L0.81105 89.7213C-0.269536 90.8019 -0.269536 92.5538 0.81105 93.6343C1.35134 94.1746 2.0595 94.4447 2.76765 94.4447C3.47581 94.4447 4.18396 94.1746 4.72407 93.6342L22.092 76.2662C23.1728 75.1856 23.1728 73.4338 22.0922 72.3532Z" fill="black"/>
<path d="M26.4579 80.632L17.4243 89.6657C16.3437 90.7463 16.3437 92.4981 17.4243 93.5787C17.9646 94.119 18.6728 94.3893 19.3808 94.3893C20.0887 94.3893 20.7971 94.1192 21.3372 93.5787L30.3709 84.545C31.4515 83.4644 31.4515 81.7126 30.3709 80.632C29.2905 79.5514 27.5385 79.5514 26.4579 80.632Z" fill="black"/>
</svg>
